<?xml version="1.0" standalone="no"?>
<!DOCTYPE svg PUBLIC "-//W3C//DTD SVG 20010904//EN"
 "http://www.w3.org/TR/2001/REC-SVG-20010904/DTD/svg10.dtd">
<svg version="1.0" xmlns="http://www.w3.org/2000/svg"
 width="2220.000000pt" height="438.000000pt" viewBox="0 0 2220.000000 438.000000"
 preserveAspectRatio="xMidYMid meet">

<g transform="translate(0.000000,438.000000) scale(0.100000,-0.100000)"
fill="#000000" stroke="none">
<path d="M2465 4363 c-766 -44 -1381 -251 -1846 -620 -386 -308 -629 -770
-606 -1157 8 -126 26 -198 79 -306 53 -109 178 -238 278 -287 154 -75 345 -99
548 -69 194 29 323 73 730 247 285 122 381 158 521 194 362 92 831 83 937 -16
33 -31 31 -71 -5 -102 -45 -37 -128 -47 -387 -46 -172 1 -250 -3 -316 -15
-277 -51 -477 -166 -546 -313 -36 -77 -38 -202 -5 -275 65 -143 239 -229 522
-258 456 -46 991 66 1292 271 314 213 431 554 313 909 -104 311 -412 535 -858
625 -172 34 -298 45 -535 45 -478 0 -811 -79 -1312 -310 -208 -96 -280 -108
-316 -54 -23 36 -4 71 88 159 212 202 597 374 1029 459 594 117 1231 49 1717
-184 461 -220 753 -568 753 -898 0 -150 -51 -273 -191 -463 -144 -195 -187
-299 -196 -474 -12 -232 70 -455 297 -805 55 -85 109 -179 120 -208 24 -63 26
-134 5 -152 -23 -19 -102 -7 -166 24 -63 31 -348 262 -514 416 -221 205 -454
328 -729 385 -142 29 -290 34 -515 18 -311 -22 -530 -4 -716 58 -182 61 -312
165 -381 304 -36 73 -38 83 -38 169 0 50 3 119 5 153 4 60 2 64 -29 95 -61 62
-160 37 -191 -48 -10 -27 -15 -84 -15 -179 -1 -122 2 -149 23 -214 43 -132
160 -278 294 -370 77 -52 225 -118 327 -146 182 -48 284 -59 535 -55 518 8
582 6 685 -19 236 -58 400 -150 597 -332 168 -157 482 -408 555 -445 175 -88
347 -85 452 8 55 48 78 104 79 188 0 118 -49 238 -214 516 -215 365 -267 528
-225 707 21 90 49 141 150 277 159 213 226 386 226 588 0 260 -101 487 -319
715 -336 352 -874 584 -1500 647 -152 15 -495 12 -646 -5 -608 -70 -1165 -295
-1459 -589 -143 -143 -189 -261 -151 -392 22 -76 87 -143 161 -165 72 -21 184
-15 288 16 89 26 124 40 334 134 370 166 646 229 1037 238 267 6 445 -10 631
-57 208 -52 346 -123 466 -241 135 -132 196 -303 170 -477 -25 -161 -110 -283
-272 -391 -227 -152 -533 -224 -950 -225 -290 -1 -421 27 -479 100 -80 102 21
209 258 271 89 24 119 26 401 33 382 9 426 19 533 118 66 62 89 111 95 197 8
130 -57 223 -203 291 -143 66 -220 79 -485 78 -416 0 -620 -50 -1145 -279
-351 -153 -498 -202 -680 -226 -154 -20 -308 5 -403 65 -100 63 -181 190 -203
319 -47 283 145 709 432 958 384 332 862 529 1494 616 185 25 725 25 905 0
501 -71 923 -219 1265 -444 163 -108 249 -179 386 -320 525 -541 579 -1215
137 -1748 -42 -51 -107 -119 -146 -151 -38 -33 -77 -71 -86 -86 -55 -89 37
-198 137 -163 21 7 72 44 114 81 251 225 425 528 490 851 24 123 24 387 0 503
-201 954 -1219 1650 -2531 1730 -151 9 -265 10 -381 3z"/>
<path d="M7595 3174 c-447 -42 -757 -336 -830 -785 -44 -276 13 -580 148 -779
124 -183 303 -307 523 -362 114 -29 350 -31 456 -5 187 46 326 125 450 255
170 178 258 417 258 702 0 203 -50 400 -141 552 -45 77 -156 200 -228 252 -92
68 -245 132 -371 155 -66 12 -209 20 -265 15z m226 -420 c154 -46 246 -139
306 -311 26 -73 28 -89 28 -243 0 -155 -2 -170 -28 -245 -32 -90 -56 -133
-106 -188 -135 -149 -371 -188 -567 -92 -181 88 -275 294 -261 570 7 124 25
203 67 284 56 112 155 194 270 225 75 20 223 20 291 0z"/>
<path d="M10055 3169 c-161 -39 -225 -234 -118 -358 46 -55 102 -83 167 -83
129 -1 225 93 226 220 0 148 -133 255 -275 221z"/>
<path d="M12172 3161 c-96 -33 -151 -110 -152 -209 0 -128 95 -223 224 -223
68 0 113 19 159 66 163 167 -12 443 -231 366z"/>
<path d="M15915 3168 c-3 -7 -4 -440 -3 -963 l3 -950 198 -3 197 -2 0 965 0
965 -195 0 c-147 0 -197 -3 -200 -12z"/>
<path d="M16739 3167 c-61 -17 -104 -49 -134 -101 -52 -89 -39 -198 32 -271
45 -47 92 -67 157 -67 132 -1 226 95 226 230 0 141 -142 247 -281 209z"/>
<path d="M21902 3161 c-120 -41 -181 -163 -141 -282 61 -181 310 -205 407 -40
22 38 27 58 27 111 -1 114 -67 196 -176 219 -61 13 -53 14 -117 -8z"/>
<path d="M17367 2923 c-4 -3 -7 -93 -7 -200 l0 -193 -95 0 -95 0 0 -165 0
-165 94 0 94 0 5 -312 c5 -327 12 -380 57 -468 66 -128 205 -199 391 -200 105
0 279 40 279 64 0 6 -9 79 -21 162 l-22 152 -31 -10 c-17 -5 -59 -9 -94 -10
-71 -2 -103 15 -137 73 -18 31 -20 55 -23 292 l-3 257 145 0 146 0 0 165 0
165 -145 0 -145 0 0 200 0 200 -193 0 c-107 0 -197 -3 -200 -7z"/>
<path d="M11707 2709 c-82 -19 -182 -92 -227 -165 l-21 -33 -40 14 c-68 24
-197 45 -278 45 -169 -1 -322 -59 -427 -164 -100 -100 -148 -219 -147 -366 0
-132 40 -236 124 -325 l49 -52 -44 -17 c-60 -23 -129 -86 -157 -144 -18 -36
-23 -63 -23 -117 1 -103 41 -177 121 -226 l36 -22 -44 -21 c-130 -61 -183
-211 -119 -336 61 -118 206 -167 520 -177 541 -17 813 118 828 410 9 185 -71
301 -248 359 -59 19 -94 22 -387 27 -306 6 -323 7 -350 27 -41 31 -45 93 -7
123 32 25 47 26 144 5 91 -19 283 -14 375 11 87 24 191 82 247 138 151 151
170 404 46 592 -31 46 -31 48 -12 62 34 27 83 43 144 50 l60 6 0 153 0 154
-62 -1 c-35 -1 -80 -5 -101 -10z m-474 -460 c47 -13 106 -63 123 -106 8 -18
14 -60 14 -94 0 -123 -75 -194 -205 -194 -121 1 -199 63 -211 171 -19 159 117
268 279 223z m210 -1172 c35 -23 37 -74 5 -104 -42 -38 -87 -46 -283 -50 -277
-7 -355 14 -355 97 0 74 27 80 345 77 231 -2 264 -4 288 -20z"/>
<path d="M13420 2563 c-95 -16 -236 -90 -263 -138 -15 -27 -24 -16 -36 45
l-12 60 -185 0 -184 0 0 -640 0 -640 194 0 195 0 3 388 c3 347 5 391 21 427
39 87 114 135 217 142 54 4 73 0 110 -19 57 -29 105 -93 119 -158 7 -32 11
-190 11 -416 l0 -364 198 2 197 3 0 450 c-1 403 -3 457 -19 515 -51 185 -154
291 -323 335 -53 14 -183 18 -243 8z"/>
<path d="M14652 2550 c-305 -80 -478 -379 -433 -748 34 -275 166 -467 378
-549 91 -35 269 -44 359 -18 84 24 170 72 225 126 l48 46 6 -51 c3 -28 8 -63
11 -78 l6 -28 184 0 184 0 0 640 0 640 -179 0 -179 0 -6 -27 c-3 -16 -8 -49
-12 -74 l-6 -46 -39 42 c-48 52 -150 107 -240 129 -87 21 -216 20 -307 -4z
m396 -370 c60 -27 107 -72 140 -135 24 -45 27 -61 27 -155 0 -95 -3 -110 -27
-156 -55 -104 -152 -158 -284 -157 -154 1 -256 90 -285 249 -33 177 59 333
218 374 55 13 156 4 211 -20z"/>
<path d="M20533 2555 c-203 -44 -354 -191 -423 -410 -33 -105 -39 -298 -12
-428 54 -257 219 -440 440 -486 66 -14 213 -14 272 0 72 17 165 66 223 119 30
28 57 50 60 50 2 0 8 -34 12 -75 l7 -75 189 0 189 0 0 640 0 640 -184 0 -184
0 -7 -70 c-4 -38 -9 -70 -11 -70 -2 0 -23 19 -47 43 -118 114 -331 164 -524
122z m359 -367 c73 -26 124 -72 159 -144 31 -62 34 -77 34 -154 0 -99 -27
-171 -86 -229 -83 -83 -234 -110 -347 -61 -117 50 -178 164 -170 313 9 156 88
259 221 287 51 11 139 5 189 -12z"/>
<path d="M9465 2537 c-92 -24 -159 -71 -206 -145 l-27 -43 -7 58 c-3 32 -8 73
-11 91 l-5 32 -184 0 -185 0 0 -640 0 -640 198 2 197 3 5 345 5 345 27 50 c62
118 167 164 376 165 l72 0 0 184 c0 161 -2 185 -16 190 -36 14 -190 15 -239 3z"/>
<path d="M9912 1893 l3 -638 198 -3 197 -2 0 640 0 640 -200 0 -200 0 2 -637z"/>
<path d="M12050 1890 l0 -640 198 2 197 3 3 638 2 637 -200 0 -200 0 0 -640z"/>
<path d="M16600 1890 l0 -640 200 0 200 0 0 640 0 640 -200 0 -200 0 0 -640z"/>
<path d="M18120 2526 c0 -2 115 -300 255 -660 l255 -656 -19 -50 c-34 -88 -69
-139 -114 -162 -37 -19 -61 -23 -194 -26 l-153 -4 0 -164 0 -163 38 -11 c20
-5 79 -15 130 -21 118 -14 220 -1 307 41 75 36 165 127 212 215 28 54 679
1606 691 1648 4 16 -10 17 -199 17 l-204 0 -149 -398 c-82 -218 -152 -401
-154 -406 -3 -5 -67 173 -142 395 l-137 404 -212 3 c-116 1 -211 0 -211 -2z"/>
<path d="M21780 1890 l0 -640 198 2 197 3 3 638 2 637 -200 0 -200 0 0 -640z"/>
<path d="M19585 1661 c-51 -23 -111 -89 -124 -138 -26 -92 -7 -168 57 -232
117 -117 309 -85 378 63 73 156 -38 326 -212 326 -35 0 -75 -8 -99 -19z"/>
</g>
</svg>
