<svg xmlns="http://www.w3.org/2000/svg" xmlns:xlink="http://www.w3.org/1999/xlink" width="2048" zoomAndPan="magnify" viewBox="0 0 1536 302.999993" height="404" preserveAspectRatio="xMidYMid meet" version="1.0"><path fill="#7164ac" d="M 170.523438 1.175781 C 117.53125 4.222656 74.988281 18.539062 42.820312 44.066406 C 16.117188 65.375 -0.691406 97.332031 0.898438 124.105469 C 1.453125 132.820312 2.699219 137.804688 6.363281 145.273438 C 10.03125 152.8125 18.679688 161.738281 25.597656 165.128906 C 36.25 170.316406 49.460938 171.976562 63.503906 169.902344 C 76.925781 167.894531 85.847656 164.851562 114.003906 152.8125 C 133.71875 144.375 140.359375 141.882812 150.046875 139.394531 C 175.089844 133.03125 207.53125 133.652344 214.867188 140.5 C 217.148438 142.644531 217.011719 145.414062 214.519531 147.558594 C 211.40625 150.117188 205.664062 150.808594 187.746094 150.738281 C 175.847656 150.667969 170.453125 150.945312 165.886719 151.777344 C 146.726562 155.304688 132.890625 163.261719 128.117188 173.429688 C 125.625 178.757812 125.488281 187.402344 127.769531 192.453125 C 132.265625 202.34375 144.304688 208.292969 163.882812 210.300781 C 195.425781 213.484375 232.4375 205.734375 253.257812 191.554688 C 274.980469 176.820312 283.074219 153.230469 274.910156 128.671875 C 267.71875 107.15625 246.410156 91.660156 215.558594 85.433594 C 203.660156 83.082031 194.941406 82.324219 178.546875 82.324219 C 145.480469 82.324219 122.445312 87.789062 87.785156 103.765625 C 73.398438 110.410156 68.417969 111.238281 65.925781 107.503906 C 64.335938 105.011719 65.648438 102.589844 72.015625 96.503906 C 86.679688 82.53125 113.3125 70.632812 143.199219 64.75 C 184.289062 56.65625 228.355469 61.363281 261.976562 77.480469 C 293.867188 92.699219 314.066406 116.773438 314.066406 139.601562 C 314.066406 149.976562 310.539062 158.488281 300.851562 171.628906 C 290.890625 185.121094 287.917969 192.316406 287.292969 204.421875 C 286.464844 220.46875 292.136719 235.898438 307.839844 260.109375 C 311.644531 265.988281 315.378906 272.492188 316.140625 274.496094 C 317.800781 278.855469 317.941406 283.765625 316.488281 285.011719 C 314.894531 286.328125 309.429688 285.496094 305.003906 283.351562 C 300.644531 281.207031 280.929688 265.226562 269.445312 254.574219 C 254.160156 240.394531 238.039062 231.882812 219.015625 227.941406 C 209.191406 225.933594 198.953125 225.589844 183.390625 226.695312 C 161.875 228.21875 146.726562 226.972656 133.859375 222.683594 C 121.269531 218.464844 112.273438 211.269531 107.503906 201.652344 C 105.011719 196.605469 104.875 195.910156 104.875 189.960938 C 104.875 186.503906 105.082031 181.730469 105.21875 179.378906 C 105.496094 175.226562 105.359375 174.949219 103.214844 172.808594 C 98.992188 168.519531 92.144531 170.246094 90 176.128906 C 89.308594 177.996094 88.960938 181.9375 88.960938 188.511719 C 88.894531 196.949219 89.101562 198.816406 90.554688 203.3125 C 93.527344 212.445312 101.621094 222.546875 110.890625 228.910156 C 116.21875 232.507812 126.457031 237.074219 133.511719 239.007812 C 146.101562 242.332031 153.160156 243.089844 170.523438 242.8125 C 206.355469 242.261719 210.785156 242.398438 217.910156 244.128906 C 234.234375 248.140625 245.582031 254.503906 259.207031 267.097656 C 270.832031 277.957031 292.550781 295.320312 297.601562 297.878906 C 309.707031 303.96875 321.605469 303.761719 328.871094 297.328125 C 332.675781 294.003906 334.265625 290.132812 334.335938 284.320312 C 334.335938 276.15625 330.945312 267.855469 319.53125 248.625 C 304.65625 223.375 301.0625 212.097656 303.964844 199.714844 C 305.417969 193.492188 307.355469 189.960938 314.34375 180.554688 C 325.34375 165.820312 329.976562 153.851562 329.976562 139.878906 C 329.976562 121.890625 322.988281 106.1875 307.910156 90.417969 C 284.664062 66.066406 247.449219 50.015625 204.144531 45.660156 C 193.628906 44.621094 169.898438 44.828125 159.453125 46.003906 C 117.394531 50.847656 78.863281 66.410156 58.523438 86.75 C 48.632812 96.640625 45.449219 104.804688 48.078125 113.867188 C 49.601562 119.125 54.097656 123.757812 59.214844 125.28125 C 64.195312 126.734375 71.945312 126.320312 79.140625 124.175781 C 85.296875 122.375 87.71875 121.40625 102.246094 114.90625 C 127.839844 103.421875 146.933594 99.0625 173.980469 98.441406 C 192.453125 98.027344 204.765625 99.132812 217.632812 102.382812 C 232.023438 105.980469 241.566406 110.894531 249.871094 119.054688 C 259.207031 128.1875 263.429688 140.015625 261.628906 152.054688 C 259.898438 163.191406 254.019531 171.628906 242.8125 179.101562 C 227.109375 189.617188 205.941406 194.597656 177.09375 194.667969 C 157.03125 194.734375 147.972656 192.800781 143.957031 187.75 C 138.425781 180.691406 145.410156 173.289062 161.804688 169 C 167.964844 167.339844 170.039062 167.203125 189.546875 166.71875 C 215.972656 166.097656 219.015625 165.40625 226.417969 158.554688 C 230.984375 154.265625 232.574219 150.878906 232.988281 144.929688 C 233.542969 135.933594 229.046875 129.5 218.945312 124.796875 C 209.054688 120.230469 203.726562 119.332031 185.394531 119.402344 C 156.617188 119.402344 142.503906 122.859375 106.1875 138.703125 C 81.90625 149.285156 71.738281 152.675781 59.148438 154.335938 C 48.492188 155.71875 37.839844 153.992188 31.269531 149.839844 C 24.351562 145.480469 18.746094 136.695312 17.226562 127.773438 C 13.972656 108.195312 27.257812 78.726562 47.109375 61.5 C 73.675781 38.53125 106.742188 24.90625 150.460938 18.886719 C 163.257812 17.15625 200.613281 17.15625 213.066406 18.886719 C 247.726562 23.796875 276.917969 34.035156 300.578125 49.601562 C 311.851562 57.074219 317.800781 61.984375 327.277344 71.738281 C 363.597656 109.164062 367.332031 155.789062 336.757812 192.660156 C 333.851562 196.1875 329.355469 200.894531 326.65625 203.105469 C 324.027344 205.390625 321.328125 208.019531 320.707031 209.054688 C 316.902344 215.210938 323.265625 222.753906 330.183594 220.332031 C 331.636719 219.847656 335.164062 217.289062 338.070312 214.726562 C 355.433594 199.164062 367.472656 178.203125 371.96875 155.859375 C 373.628906 147.347656 373.628906 129.085938 371.96875 121.0625 C 358.0625 55.066406 287.640625 6.917969 196.878906 1.382812 C 186.433594 0.761719 178.546875 0.691406 170.523438 1.175781 Z M 170.523438 1.175781 " fill-opacity="1" fill-rule="nonzero"/><path fill="#7164ac" d="M 525.402344 83.429688 C 494.480469 86.335938 473.035156 106.671875 467.988281 137.734375 C 464.941406 156.828125 468.886719 177.855469 478.226562 191.621094 C 486.800781 204.28125 499.183594 212.859375 514.40625 216.664062 C 522.289062 218.671875 538.617188 218.808594 545.949219 217.011719 C 558.886719 213.828125 568.5 208.363281 577.078125 199.371094 C 588.839844 187.058594 594.925781 170.523438 594.925781 150.808594 C 594.925781 136.765625 591.46875 123.136719 585.171875 112.621094 C 582.058594 107.296875 574.382812 98.785156 569.402344 95.1875 C 563.035156 90.484375 552.453125 86.058594 543.734375 84.46875 C 539.171875 83.636719 529.277344 83.082031 525.402344 83.429688 Z M 541.039062 112.484375 C 551.691406 115.664062 558.054688 122.097656 562.207031 133.996094 C 564.003906 139.046875 564.144531 140.15625 564.144531 150.808594 C 564.144531 161.53125 564.003906 162.570312 562.207031 167.757812 C 559.992188 173.984375 558.332031 176.957031 554.875 180.761719 C 545.535156 191.070312 529.207031 193.765625 515.648438 187.125 C 503.128906 181.039062 496.625 166.789062 497.59375 147.695312 C 498.078125 139.117188 499.324219 133.652344 502.230469 128.046875 C 506.101562 120.300781 512.953125 114.628906 520.90625 112.484375 C 526.09375 111.101562 536.332031 111.101562 541.039062 112.484375 Z M 541.039062 112.484375 " fill-opacity="1" fill-rule="nonzero"/><path fill="#7164ac" d="M 695.582031 83.773438 C 684.441406 86.472656 680.015625 99.960938 687.417969 108.539062 C 690.601562 112.34375 694.472656 114.28125 698.96875 114.28125 C 707.894531 114.351562 714.535156 107.847656 714.605469 99.0625 C 714.605469 88.824219 705.402344 81.421875 695.582031 83.773438 Z M 695.582031 83.773438 " fill-opacity="1" fill-rule="nonzero"/><path fill="#7164ac" d="M 842.03125 84.328125 C 835.386719 86.613281 831.582031 91.9375 831.515625 98.785156 C 831.515625 107.640625 838.085938 114.214844 847.011719 114.214844 C 851.714844 114.214844 854.828125 112.898438 858.007812 109.648438 C 869.285156 98.09375 857.179688 79 842.03125 84.328125 Z M 842.03125 84.328125 " fill-opacity="1" fill-rule="nonzero"/><path fill="#7164ac" d="M 1100.960938 83.84375 C 1100.753906 84.328125 1100.683594 114.28125 1100.753906 150.460938 L 1100.960938 216.179688 L 1114.660156 216.386719 L 1128.285156 216.527344 L 1128.285156 83.015625 L 1114.796875 83.015625 C 1104.628906 83.015625 1101.167969 83.222656 1100.960938 83.84375 Z M 1100.960938 83.84375 " fill-opacity="1" fill-rule="nonzero"/><path fill="#7164ac" d="M 1157.964844 83.914062 C 1153.742188 85.089844 1150.769531 87.304688 1148.695312 90.902344 C 1145.097656 97.058594 1145.996094 104.597656 1150.90625 109.648438 C 1154.019531 112.898438 1157.273438 114.28125 1161.769531 114.28125 C 1170.898438 114.351562 1177.402344 107.710938 1177.402344 98.371094 C 1177.402344 88.617188 1167.578125 81.285156 1157.964844 83.914062 Z M 1157.964844 83.914062 " fill-opacity="1" fill-rule="nonzero"/><path fill="#7164ac" d="M 1515.128906 84.328125 C 1506.824219 87.164062 1502.605469 95.605469 1505.375 103.835938 C 1509.59375 116.359375 1526.816406 118.019531 1533.527344 106.605469 C 1535.050781 103.976562 1535.394531 102.589844 1535.394531 98.925781 C 1535.328125 91.039062 1530.761719 85.367188 1523.222656 83.773438 C 1519 82.875 1519.554688 82.804688 1515.128906 84.328125 Z M 1515.128906 84.328125 " fill-opacity="1" fill-rule="nonzero"/><path fill="#7164ac" d="M 1201.40625 100.792969 C 1201.128906 101 1200.921875 107.226562 1200.921875 114.628906 L 1200.921875 127.980469 L 1187.777344 127.980469 L 1187.777344 150.808594 L 1200.785156 150.808594 L 1201.128906 172.390625 C 1201.476562 195.011719 1201.960938 198.679688 1205.074219 204.765625 C 1209.640625 213.621094 1219.253906 218.53125 1232.121094 218.601562 C 1239.386719 218.601562 1251.421875 215.835938 1251.421875 214.175781 C 1251.421875 213.761719 1250.800781 208.710938 1249.96875 202.96875 L 1248.449219 192.453125 L 1246.304688 193.144531 C 1245.128906 193.492188 1242.222656 193.765625 1239.800781 193.835938 C 1234.890625 193.976562 1232.675781 192.800781 1230.324219 188.785156 C 1229.078125 186.640625 1228.941406 184.980469 1228.730469 168.585938 L 1228.523438 150.808594 L 1248.65625 150.808594 L 1248.65625 127.980469 L 1228.59375 127.980469 L 1228.59375 100.308594 L 1215.242188 100.308594 C 1207.839844 100.308594 1201.613281 100.515625 1201.40625 100.792969 Z M 1201.40625 100.792969 " fill-opacity="1" fill-rule="nonzero"/><path fill="#7164ac" d="M 809.863281 115.597656 C 804.1875 116.910156 797.273438 121.960938 794.160156 127.011719 L 792.707031 129.292969 L 789.9375 128.324219 C 785.234375 126.664062 776.3125 125.210938 770.707031 125.210938 C 759.015625 125.28125 748.433594 129.292969 741.167969 136.558594 C 734.25 143.476562 730.929688 151.707031 731 161.875 C 731 171.007812 733.765625 178.203125 739.578125 184.359375 L 742.96875 187.957031 L 739.921875 189.132812 C 735.773438 190.722656 731 195.082031 729.0625 199.09375 C 727.816406 201.585938 727.472656 203.453125 727.472656 207.1875 C 727.539062 214.3125 730.308594 219.433594 735.84375 222.820312 L 738.332031 224.34375 L 735.289062 225.796875 C 726.296875 230.015625 722.628906 240.394531 727.054688 249.039062 C 731.277344 257.203125 741.308594 260.59375 763.027344 261.285156 C 800.453125 262.460938 819.269531 253.121094 820.308594 232.921875 C 820.929688 220.125 815.394531 212.097656 803.152344 208.085938 C 799.070312 206.773438 796.648438 206.566406 776.378906 206.21875 C 755.210938 205.804688 754.035156 205.734375 752.167969 204.351562 C 749.332031 202.207031 749.054688 197.917969 751.683594 195.84375 C 753.898438 194.113281 754.933594 194.042969 761.644531 195.496094 C 767.941406 196.8125 781.222656 196.464844 787.585938 194.734375 C 793.605469 193.074219 800.800781 189.0625 804.671875 185.1875 C 815.121094 174.742188 816.433594 157.242188 807.855469 144.234375 C 805.710938 141.054688 805.710938 140.914062 807.027344 139.949219 C 809.378906 138.078125 812.765625 136.972656 816.988281 136.488281 L 821.136719 136.074219 L 821.136719 114.835938 L 816.847656 114.90625 C 814.425781 114.972656 811.316406 115.25 809.863281 115.597656 Z M 777.070312 147.417969 C 780.324219 148.316406 784.40625 151.777344 785.582031 154.75 C 786.132812 155.996094 786.550781 158.902344 786.550781 161.253906 C 786.550781 169.761719 781.359375 174.675781 772.367188 174.675781 C 763.996094 174.605469 758.601562 170.316406 757.769531 162.84375 C 756.457031 151.847656 765.863281 144.304688 777.070312 147.417969 Z M 791.597656 228.496094 C 794.019531 230.085938 794.160156 233.613281 791.945312 235.6875 C 789.039062 238.316406 785.925781 238.871094 772.367188 239.148438 C 753.207031 239.632812 747.808594 238.179688 747.808594 232.4375 C 747.808594 227.320312 749.675781 226.902344 771.675781 227.109375 C 787.65625 227.25 789.9375 227.386719 791.597656 228.496094 Z M 791.597656 228.496094 " fill-opacity="1" fill-rule="nonzero"/><path fill="#7164ac" d="M 928.363281 125.695312 C 921.792969 126.804688 912.039062 131.921875 910.167969 135.242188 C 909.132812 137.109375 908.507812 136.351562 907.679688 132.128906 L 906.847656 127.980469 L 881.324219 127.980469 L 881.324219 216.527344 L 908.234375 216.527344 L 908.441406 189.6875 C 908.648438 165.679688 908.785156 162.636719 909.894531 160.148438 C 912.589844 154.128906 917.777344 150.808594 924.902344 150.324219 C 928.640625 150.046875 929.953125 150.324219 932.515625 151.636719 C 936.457031 153.644531 939.777344 158.070312 940.746094 162.570312 C 941.230469 164.78125 941.507812 175.710938 941.507812 191.347656 L 941.507812 216.527344 L 955.203125 216.386719 L 968.832031 216.179688 L 968.832031 185.050781 C 968.761719 157.171875 968.625 153.4375 967.519531 149.425781 C 963.988281 136.625 956.863281 129.292969 945.171875 126.25 C 941.507812 125.28125 932.515625 125.003906 928.363281 125.695312 Z M 928.363281 125.695312 " fill-opacity="1" fill-rule="nonzero"/><path fill="#7164ac" d="M 1013.589844 126.597656 C 992.492188 132.128906 980.523438 152.8125 983.636719 178.339844 C 985.988281 197.363281 995.121094 210.648438 1009.785156 216.320312 C 1016.082031 218.742188 1028.394531 219.363281 1034.621094 217.566406 C 1040.429688 215.902344 1046.378906 212.582031 1050.183594 208.847656 L 1053.503906 205.664062 L 1053.921875 209.195312 C 1054.128906 211.132812 1054.472656 213.550781 1054.679688 214.589844 L 1055.097656 216.527344 L 1080.554688 216.527344 L 1080.554688 127.980469 L 1055.789062 127.980469 L 1055.375 129.847656 C 1055.164062 130.953125 1054.820312 133.238281 1054.542969 134.964844 L 1054.128906 138.148438 L 1051.429688 135.242188 C 1048.109375 131.644531 1041.054688 127.839844 1034.828125 126.320312 C 1028.808594 124.867188 1019.886719 124.9375 1013.589844 126.597656 Z M 1040.984375 152.191406 C 1045.136719 154.058594 1048.386719 157.171875 1050.667969 161.53125 C 1052.328125 164.644531 1052.535156 165.75 1052.535156 172.253906 C 1052.535156 178.824219 1052.328125 179.863281 1050.667969 183.046875 C 1046.863281 190.238281 1040.152344 193.976562 1031.023438 193.90625 C 1020.371094 193.835938 1013.3125 187.679688 1011.308594 176.679688 C 1009.023438 164.4375 1015.386719 153.644531 1026.386719 150.808594 C 1030.191406 149.910156 1037.179688 150.53125 1040.984375 152.191406 Z M 1040.984375 152.191406 " fill-opacity="1" fill-rule="nonzero"/><path fill="#7164ac" d="M 1420.421875 126.25 C 1406.378906 129.292969 1395.933594 139.464844 1391.160156 154.613281 C 1388.878906 161.875 1388.464844 175.226562 1390.332031 184.222656 C 1394.066406 202 1405.480469 214.660156 1420.769531 217.839844 C 1425.335938 218.808594 1435.503906 218.808594 1439.585938 217.839844 C 1444.566406 216.664062 1451 213.277344 1455.011719 209.609375 C 1457.085938 207.671875 1458.957031 206.148438 1459.164062 206.148438 C 1459.300781 206.148438 1459.714844 208.503906 1459.992188 211.339844 L 1460.476562 216.527344 L 1486.625 216.527344 L 1486.625 127.980469 L 1461.167969 127.980469 L 1460.683594 132.820312 C 1460.40625 135.449219 1460.0625 137.664062 1459.921875 137.664062 C 1459.785156 137.664062 1458.332031 136.351562 1456.671875 134.691406 C 1448.507812 126.804688 1433.773438 123.34375 1420.421875 126.25 Z M 1445.257812 151.636719 C 1450.308594 153.4375 1453.835938 156.617188 1456.257812 161.601562 C 1458.402344 165.890625 1458.609375 166.925781 1458.609375 172.253906 C 1458.609375 179.101562 1456.742188 184.082031 1452.660156 188.09375 C 1446.917969 193.835938 1436.472656 195.703125 1428.65625 192.316406 C 1420.5625 188.855469 1416.339844 180.96875 1416.894531 170.664062 C 1417.519531 159.871094 1422.984375 152.746094 1432.183594 150.808594 C 1435.710938 150.046875 1441.800781 150.460938 1445.257812 151.636719 Z M 1445.257812 151.636719 " fill-opacity="1" fill-rule="nonzero"/><path fill="#7164ac" d="M 654.765625 127.496094 C 648.402344 129.15625 643.765625 132.40625 640.515625 137.527344 L 638.648438 140.5 L 638.164062 136.488281 C 637.957031 134.273438 637.609375 131.4375 637.402344 130.191406 L 637.054688 127.980469 L 611.53125 127.980469 L 611.53125 216.527344 L 625.226562 216.386719 L 638.855469 216.179688 L 639.199219 192.316406 L 639.546875 168.449219 L 641.414062 164.988281 C 645.703125 156.828125 652.96875 153.644531 667.425781 153.574219 L 672.40625 153.574219 L 672.40625 140.847656 C 672.40625 129.710938 672.269531 128.046875 671.300781 127.703125 C 668.808594 126.734375 658.15625 126.664062 654.765625 127.496094 Z M 654.765625 127.496094 " fill-opacity="1" fill-rule="nonzero"/><path fill="#7164ac" d="M 685.6875 172.046875 L 685.894531 216.179688 L 699.59375 216.386719 L 713.222656 216.527344 L 713.222656 127.980469 L 685.550781 127.980469 Z M 685.6875 172.046875 " fill-opacity="1" fill-rule="nonzero"/><path fill="#7164ac" d="M 833.589844 172.253906 L 833.589844 216.527344 L 847.285156 216.386719 L 860.914062 216.179688 L 861.121094 172.046875 L 861.261719 127.980469 L 833.589844 127.980469 Z M 833.589844 172.253906 " fill-opacity="1" fill-rule="nonzero"/><path fill="#7164ac" d="M 1148.347656 172.253906 L 1148.347656 216.527344 L 1176.019531 216.527344 L 1176.019531 127.980469 L 1148.347656 127.980469 Z M 1148.347656 172.253906 " fill-opacity="1" fill-rule="nonzero"/><path fill="#7164ac" d="M 1253.496094 128.257812 C 1253.496094 128.394531 1261.453125 149.007812 1271.136719 173.914062 L 1288.777344 219.292969 L 1287.464844 222.753906 C 1285.113281 228.839844 1282.691406 232.367188 1279.578125 233.960938 C 1277.019531 235.273438 1275.359375 235.550781 1266.15625 235.757812 L 1255.574219 236.035156 L 1255.574219 258.65625 L 1258.203125 259.417969 C 1259.585938 259.761719 1263.667969 260.453125 1267.195312 260.871094 C 1275.359375 261.839844 1282.414062 260.9375 1288.433594 258.035156 C 1293.621094 255.542969 1299.847656 249.246094 1303.097656 243.160156 C 1305.035156 239.425781 1350.070312 132.0625 1350.898438 129.15625 C 1351.175781 128.046875 1350.207031 127.980469 1337.132812 127.980469 L 1323.019531 127.980469 L 1312.714844 155.511719 C 1307.042969 170.59375 1302.199219 183.253906 1302.058594 183.597656 C 1301.851562 183.945312 1297.425781 171.628906 1292.238281 156.273438 L 1282.761719 128.324219 L 1268.09375 128.117188 C 1260.070312 128.046875 1253.496094 128.117188 1253.496094 128.257812 Z M 1253.496094 128.257812 " fill-opacity="1" fill-rule="nonzero"/><path fill="#7164ac" d="M 1506.6875 172.253906 L 1506.6875 216.527344 L 1520.386719 216.386719 L 1534.011719 216.179688 L 1534.21875 172.046875 L 1534.359375 127.980469 L 1506.6875 127.980469 Z M 1506.6875 172.253906 " fill-opacity="1" fill-rule="nonzero"/><path fill="#7164ac" d="M 1354.84375 188.09375 C 1351.316406 189.6875 1347.164062 194.25 1346.265625 197.640625 C 1344.464844 204.003906 1345.78125 209.261719 1350.207031 213.691406 C 1358.300781 221.785156 1371.582031 219.570312 1376.355469 209.332031 C 1381.40625 198.539062 1373.726562 186.78125 1361.691406 186.78125 C 1359.269531 186.78125 1356.503906 187.332031 1354.84375 188.09375 Z M 1354.84375 188.09375 " fill-opacity="1" fill-rule="nonzero"/></svg>